<?xml version="1.0" encoding="UTF-8" standalone="no"?>
<!-- Created with Inkscape (http://www.inkscape.org/) -->

<svg
   width="64"
   height="64"
   viewBox="0 0 16.933333 16.933333"
   version="1.1"
   id="svg1"
   xml:space="preserve"
   inkscape:version="1.4.2 (1:1.4.2+202505120737+ebf0e940d0)"
   sodipodi:docname="package_png.svg"
   inkscape:export-filename="../package.png"
   inkscape:export-xdpi="96"
   inkscape:export-ydpi="96"
   xmlns:inkscape="http://www.inkscape.org/namespaces/inkscape"
   xmlns:sodipodi="http://sodipodi.sourceforge.net/DTD/sodipodi-0.dtd"
   xmlns="http://www.w3.org/2000/svg"
   xmlns:svg="http://www.w3.org/2000/svg"><sodipodi:namedview
     id="namedview1"
     pagecolor="#ffffff"
     bordercolor="#000000"
     borderopacity="0.25"
     inkscape:showpageshadow="2"
     inkscape:pageopacity="0.0"
     inkscape:pagecheckerboard="0"
     inkscape:deskcolor="#d1d1d1"
     inkscape:document-units="mm"
     inkscape:zoom="6.1865688"
     inkscape:cx="12.365497"
     inkscape:cy="41.784066"
     inkscape:window-width="1920"
     inkscape:window-height="1021"
     inkscape:window-x="0"
     inkscape:window-y="0"
     inkscape:window-maximized="1"
     inkscape:current-layer="layer1"
     inkscape:export-bgcolor="#ffffffff" /><defs
     id="defs1" /><g
     inkscape:label="Layer 1"
     inkscape:groupmode="layer"
     id="layer1"><text
       xml:space="preserve"
       style="font-size:4.85546px;line-height:0.9;font-family:'Abyssinica SIL';-inkscape-font-specification:'Abyssinica SIL';text-align:center;writing-mode:lr-tb;direction:ltr;text-anchor:middle;fill:#1ab45b;fill-opacity:1;stroke-width:1.05833;paint-order:markers fill stroke"
       x="8.4666662"
       y="15.547648"
       id="text2"><tspan
         sodipodi:role="line"
         id="tspan2"
         style="font-style:normal;font-variant:normal;font-weight:normal;font-stretch:normal;font-family:Gargi;-inkscape-font-specification:Gargi;fill:#1ab45b;fill-opacity:1;stroke-width:1.05833"
         x="8.4666662"
         y="15.547648">2026</tspan></text><path
       style="fill:#1ab45b;stroke-width:0.999997;fill-opacity:1"
       d="M 8.3804059,11.309873 C 7.9748686,11.2798 7.5415905,11.196124 7.1721439,11.07653 l -0.2285904,-0.074 v -0.859388 c 0,-0.8109941 -0.00184,-0.8586552 -0.032655,-0.8463489 -0.017962,0.00717 -0.1376204,0.051795 -0.2659108,0.099162 -0.1282904,0.047367 -0.2384516,0.093593 -0.2448033,0.1027252 -0.00636,0.0091 -0.017684,0.286599 -0.025188,0.6165947 -0.00751,0.329996 -0.016722,0.603213 -0.02049,0.60715 C 6.3447364,10.732645 6.103563,10.588441 5.9172333,10.460971 5.7472967,10.344715 5.5464863,10.18475 5.3501672,10.009245 L 5.2283648,9.9003563 4.8123872,10.031488 C 3.8097646,10.347554 3.0050563,10.548663 2.3266758,10.652706 1.9657031,10.708066 1.4023883,10.720596 1.168413,10.678466 0.95981975,10.640909 0.75888571,10.549978 0.68099357,10.457888 0.433822,10.165662 0.48988526,9.7362373 0.83863331,9.250422 1.2810971,8.6340575 2.3041655,7.7851205 3.5698197,6.9840985 L 3.8042473,6.8357312 3.8136893,6.3683048 C 3.8262974,5.7440212 3.8862138,5.3907491 4.0697745,4.8584016 4.1444091,4.6419547 4.3165494,4.2378579 4.347159,4.2072483 c 0.00854,-0.00854 0.02991,0.022126 0.047489,0.068152 0.017575,0.046027 0.045919,0.086371 0.06298,0.089656 0.018589,0.00359 0.054229,0.061612 0.088922,0.1447873 l 0.0579,0.1388132 0.2772517,0.057068 0.2772525,0.057067 0.025881,0.1165285 0.025881,0.116528 h 0.091656 c 0.080058,0 0.092747,0.00531 0.1002733,0.041985 0.00474,0.023094 0.018065,0.084964 0.029617,0.1374945 l 0.020999,0.095508 0.1340168,0.011273 c 0.073709,0.0062 0.3369148,0.016934 0.5849015,0.023843 l 0.4508858,0.012571 -0.00988,0.1045721 c -0.00543,0.057514 -0.015198,0.1490352 -0.021698,0.2033811 L 6.5796666,5.725286 6.5153956,5.677792 C 6.4377416,5.620405 6.4386066,5.620454 6.3757206,5.669922 l -0.050372,0.039622 0.06185,0.054576 0.06185,0.054576 L 6.019855,5.810176 C 5.5901871,5.8016288 5.4141714,5.7815821 5.314011,5.7297885 l -0.053484,-0.02766 0.013391,0.062053 c 0.00737,0.034127 0.024966,0.068768 0.039113,0.076975 0.019132,0.011098 0.025721,0.062498 0.025721,0.2005991 V 6.2274318 H 5.9467007 6.5546494 L 6.5436345,6.3440592 C 6.5226773,6.565973 6.4755793,7.5013799 6.410163,8.9949944 L 6.398055,9.2713927 6.46087,9.2450157 C 6.49542,9.2305067 6.6181531,9.1778217 6.7336146,9.1279352 L 6.9435437,9.0372325 V 7.6292859 6.2213389 l 0.9096953,0.012358 c 0.5003323,0.0068 1.2769355,0.012368 1.7257844,0.012377 l 0.8160876,2.13e-5 0.0049,0.4935238 0.0049,0.4935249 0.220573,-0.1343116 0.220564,-0.1343115 -0.01162,-0.2892371 c -0.0064,-0.1590797 -0.01644,-0.3207251 -0.02234,-0.3592128 l -0.01074,-0.069975 h 0.55968 c 0.537959,0 0.56159,-0.00151 0.608848,-0.038673 0.04572,-0.03597 0.04916,-0.04902 0.04916,-0.1866046 0,-0.1153747 0.0059,-0.1479287 0.02651,-0.1479287 0.02329,0 0.06217,-0.1041453 0.04522,-0.1210971 -0.0036,-0.00353 -0.04949,0.00467 -0.102063,0.01833 -0.143339,0.037183 -0.389953,0.062464 -0.748737,0.076761 -0.282251,0.01125 -0.321892,0.00931 -0.321892,-0.015759 0,-0.015721 0.02253,-0.043353 0.05009,-0.061401 l 0.05008,-0.032815 -0.05197,-0.044702 -0.05197,-0.044702 -0.06577,0.038811 c -0.03618,0.021344 -0.06795,0.036367 -0.07063,0.033386 -0.0027,-0.00297 -0.01221,-0.090209 -0.02121,-0.1938352 l -0.01635,-0.188412 0.504064,-0.013991 c 0.277236,-0.0077 0.54605,-0.019476 0.597366,-0.026183 l 0.0933,-0.012193 0.01681,-0.1249674 0.01681,-0.1249669 0.09873,-0.012334 0.09873,-0.012334 0.01249,-0.10006 c 0.0069,-0.055032 0.02206,-0.1074489 0.03375,-0.1164789 0.01168,-0.00903 0.117814,-0.034962 0.23584,-0.05762 0.118027,-0.02266 0.229492,-0.045541 0.2477,-0.05085 0.01843,-0.00537 0.05802,-0.064861 0.08933,-0.1342082 0.03092,-0.068507 0.07456,-0.1385888 0.09697,-0.1557374 0.02242,-0.01715 0.05477,-0.071731 0.07191,-0.121293 l 0.03116,-0.090113 0.102691,0.214595 c 0.05647,0.118027 0.142428,0.3299122 0.190999,0.4708565 l 0.08831,0.256263 0.196363,-0.1816209 c 0.353241,-0.3266405 0.666536,-0.6968437 0.816012,-0.9641309 0.102419,-0.183142 0.143824,-0.3187233 0.145692,-0.4770706 0.002,-0.1721201 -0.0492,-0.2847519 -0.194621,-0.4279009 -0.291065,-0.28651 -0.806353,-0.3518306 -1.546541,-0.1960469 -0.207139,0.043593 -0.593591,0.1476748 -0.610275,0.1643593 -0.0045,0.00449 0.05214,0.074024 0.12582,0.154555 0.186361,0.2037009 0.399796,0.4916673 0.547324,0.7384494 l 0.124913,0.2089533 -0.06853,0.035159 c -0.03764,0.019334 -0.166103,0.067215 -0.285421,0.106395 C 12.124128,4.4491267 11.452239,4.549162 10.470366,4.6067009 9.9420451,4.6376618 8.1324252,4.6382704 7.6526445,4.6076442 6.4258985,4.5293508 5.5410798,4.4287898 4.9149834,4.2965056 4.7197195,4.2552471 4.410737,4.1673511 4.3907635,4.147378 4.3636985,4.120313 4.6860604,3.6289333 4.9070751,3.3603621 5.6717857,2.4311096 6.6911367,1.8441505 7.9063735,1.6333162 8.2355739,1.5762022 9.0544757,1.5714902 9.3880641,1.6247962 10.316675,1.7731706 11.190057,2.174659 11.852901,2.7578667 l 0.122956,0.10818 0.464847,-0.1297111 c 1.40082,-0.3908863 2.250088,-0.5673441 2.83472,-0.5889869 0.610833,-0.022613 0.913059,0.1009864 1.069128,0.4372361 0.05871,0.1264961 0.07675,0.3441232 0.042,0.506926 -0.03305,0.1548913 -0.205899,0.492199 -0.349176,0.6814131 -0.294316,0.3886787 -0.863726,0.9173283 -1.508374,1.4004024 -0.32194,0.2412478 -0.959042,0.6894101 -0.999735,0.7032508 -0.0095,0.00325 -0.0081,0.1225712 0.0037,0.2819642 0.04223,0.5778664 -0.04205,1.2251947 -0.23615,1.8136423 -0.318489,0.9655919 -0.941048,1.8172507 -1.766178,2.4161274 -0.207587,0.150666 -0.496058,0.328157 -0.510261,0.313954 -0.0045,-0.0045 -0.01668,-0.284739 -0.02703,-0.622726 -0.02649,-0.8645162 -0.105101,-2.6210283 -0.11778,-2.6314559 -0.0022,-0.00179 -0.10888,0.052981 -0.23717,0.1216731 l -0.233255,0.1248947 -0.01163,0.4093424 c -0.0064,0.2251382 -0.01269,0.9695582 -0.01399,1.654268 -0.0023,1.1844677 -0.004,1.2458107 -0.03641,1.2631427 -0.125927,0.0674 -0.7143665,0.210242 -1.0482648,0.254471 -0.2052826,0.02719 -0.7386713,0.04702 -0.9143596,0.03399 z M 3.7432926,10.052396 C 4.0955858,10.018176 4.5696984,9.9176443 4.9699486,9.7922863 L 5.095641,9.7529193 4.9631946,9.5996483 C 4.5252499,9.0928454 4.1690738,8.4291962 3.9946042,7.7949108 3.9621375,7.6768839 3.9300996,7.5657822 3.9234066,7.5480185 3.9133686,7.5213686 3.8769881,7.544432 3.7153025,7.6801031 2.9944592,8.2848675 2.559948,8.8121873 2.481656,9.1772529 2.435591,9.3920465 2.501707,9.6193623 2.659234,9.7877693 2.8697447,10.012822 3.2343546,10.101825 3.7432926,10.052396 Z M 9.0826435,5.8403416 8.9544936,5.8337616 8.9680121,5.5967439 c 0.00743,-0.1303597 0.017316,-0.243316 0.021952,-0.2510135 0.00462,-0.0077 0.322836,-0.013995 0.707101,-0.013995 H 10.395729 V 5.539215 5.7466941 l -0.06407,-0.048866 c -0.03524,-0.026877 -0.06971,-0.048865 -0.07661,-0.048865 -0.0069,0 -0.0369,0.02049 -0.06666,0.045532 l -0.05411,0.045537 0.05609,0.033132 c 0.126305,0.07461 0.08652,0.081279 -0.46174,0.077411 -0.2848038,-0.00203 -0.5754933,-0.00662 -0.6459766,-0.010226 z M 7.1114972,5.8187383 c 0,-0.00925 0.025254,-0.032815 0.056118,-0.05236 l 0.056119,-0.035532 -0.054641,-0.05235 -0.05464,-0.052349 -0.063886,0.048727 c -0.035136,0.026802 -0.073588,0.048727 -0.085448,0.048727 -0.014976,0 -0.021566,-0.061304 -0.021575,-0.2005997 l -9.4e-6,-0.2005991 0.7137698,0.00624 c 0.3925733,0.00344 0.7167417,0.0092 0.7203757,0.012826 0.00363,0.00363 0.013872,0.07639 0.022754,0.1617053 0.00888,0.085315 0.020892,0.1950044 0.026693,0.2437542 l 0.010547,0.088637 H 7.7745844 c -0.3814797,0 -0.6630874,-0.00714 -0.6630874,-0.016829 z"
       id="path4"
       sodipodi:nodetypes="sscsssssssscsssssscsssssscccccssscsscsscsscccsscssscccsscssccccsccccccscssssscssscccssscsscccccssssssscsscsssssssscssscsssssscssssssscsssssscsscssssscssscsssccssscccssscssscsscccssscsssscsss" /><path
       style="fill:#000000"
       id="path2" /></g></svg>
